<svg xmlns="http://www.w3.org/2000/svg" version="1.1" xmlns:xlink="http://www.w3.org/1999/xlink" xmlns:svgjs="http://svgjs.dev/svgjs" width="2000" height="2250" viewBox="0 0 2000 2250"><g transform="matrix(1,0,0,1,0,0)"><svg viewBox="0 0 320 360" data-background-color="#000000" preserveAspectRatio="xMidYMid meet" height="2250" width="2000" xmlns="http://www.w3.org/2000/svg" xmlns:xlink="http://www.w3.org/1999/xlink"><g id="tight-bounds" transform="matrix(1,0,0,1,0,0)"><svg viewBox="0 0 320 360" height="360" width="320"><g><svg></svg></g><g><svg viewBox="0 0 320 360" height="360" width="320"><g><path d="M219.58 41.008c0.707 0 6.365 2.829 9.547 3.89-1.061 0.354-3.536-0.707-6.365-1.768 0.707 0 2.122 0.354 3.536 1.06-0.707-0.707-6.011-2.475-6.718-3.182M166.895 30.047c1.061-0.354 13.436 1.414 19.094 1.768 0.354-0.354-0.707-0.354-2.122-0.707 1.768-0.354 5.304 0.707 7.779 1.06-7.425 0.354-15.558-1.768-22.629-1.06-2.475 0-0.707-0.707-2.122-1.061M156.641 30.047c6.365 0 11.315 0 2.121 0.707-1.061-0.354-2.475-0.354-2.121-0.707M256.707 59.395c0.707 0 3.536 3.182 4.95 4.243-0.354 0.354-3.182-2.475-4.596-3.536 0.354 0.354 0 0-0.354-0.707M249.635 54.798c-2.829-2.475-3.889-2.475-4.243-3.889 2.475 1.414 4.243 2.829 4.243 3.889M204.022 32.522c0.354-0.354 1.061 0.354 2.829 0.707-2.122-0.354-1.768 0-1.061 0.707-2.475-0.354-3.182-0.707-2.475-1.414 1.414 0.707 1.768 0.354 0.707 0M103.602 36.765c0-0.354 1.414-1.061 2.475-1.414-1.061 0.707-0.707 1.061 1.061 0.353 0 0.354-2.122 1.061-3.536 1.768 0.707-0.354 1.414-1.414 0-0.707M211.094 28.986c-1.061 0.354-4.95-1.768-8.84-2.475-2.122-0.707 8.486 1.768 8.84 2.475M2.475 203.66c2.122 8.84 0.707 8.486 0 0M2.829 150.621c0.354-1.414 0.707-5.304 1.06-4.95-1.061 8.486-2.829 12.376-3.182 18.74 1.061-5.657-0.354 3.182-0.707 5.304 0.354 2.829 0.354-1.768 1.061-1.06 0.707 1.061-1.414 15.912-0.707 7.779-0.707 7.425 0 15.558 1.414 17.679-1.768 11.315 7.072 36.773 8.84 42.077 0.354 0.354 0-1.768 0.707-0.353 0.707 4.597 3.889 7.779 4.95 12.729 1.061 1.414 5.304 9.193 6.011 10.962 1.414 2.829 2.122 2.475 3.536 5.303 4.243 8.133 10.961 15.912 17.326 23.337 20.508 24.044 51.978 43.845 86.984 50.918 35.006 7.425 71.779 2.122 100.419-11.669 1.768-1.061 1.414-1.414 3.536-2.122 9.901-3.182 21.923-13.436 28.641-17.326 3.182-3.536 11.669-9.547 12.73-13.082 6.011-4.95 12.022-13.083 15.204-18.387 1.768-2.829 3.182-2.829 3.889-4.597-0.354 0 5.657-7.425 7.426-11.668-0.707 0-1.768 2.122-1.768 0 12.729-24.398 19.801-57.282 15.911-79.912 0.707 27.934-6.365 59.05-19.801 78.851-6.011 12.729-18.387 26.519-29.701 36.42-1.768 1.768-3.536 3.889-5.658 5.304-6.718 5.657-14.144 10.254-21.922 14.497-18.387 10.254-38.895 19.094-62.94 19.447 41.37-3.536 78.497-24.398 99.006-49.856-15.558 15.204-22.276 21.215-39.602 30.055-1.414 2.475-13.083 7.425-20.862 9.547 4.597-2.122 14.144-5.657 17.326-8.486-25.812 12.376-54.453 19.448-81.326 15.558 10.254 0 24.751 0.354 38.541-2.121 2.122-0.707 3.182-1.414 5.658-1.768 26.873-6.011 52.685-19.094 71.072-37.481-10.608 9.547-26.519 20.862-36.774 24.398 9.547-5.304 26.873-15.558 32.53-23.337-11.315 11.315-32.53 22.63-45.966 27.58-2.122 0.354 1.414-1.414-2.122 0-4.243 1.061-2.475 1.061-3.536 1.768-16.265 4.597-35.006 8.486-50.563 7.072-2.829-0.354-3.889-1.061-6.365-1.061-2.829-0.354-5.304-0.354-8.486-0.354-12.376-1.414-25.812-6.365-35.713-10.607-5.304-2.475-10.608-4.243-15.912-7.426-4.243-2.475-7.779-5.304-11.314-8.132-13.436-9.901-24.751-19.801-35.36-33.945-19.094-26.519-28.994-59.757-27.58-92.641 1.414-32.884 14.497-65.061 35.359-88.752-1.061 1.061 1.414-2.475 3.536-4.596 0 0.707-0.354 1.768 2.122-0.707 2.122-2.475-0.707-0.707 0.353-2.122 21.923-24.044 60.111-43.492 99.36-44.199 1.414-1.061 3.889-2.475 6.718-1.768 0 0.354-1.768 0.354-1.768 0.354 3.889-0.354 7.425-0.354 9.193 0.353 0.354-0.354-1.414-0.707 0-0.707 2.475 0.707 3.182 0 4.597 0.707-1.061 0-2.122 0-2.829 0.354 8.84 0 14.497 2.122 23.337 2.829-4.597-1.061-5.657-1.061-9.193-2.122 3.889 0.707 5.657 1.414 7.425 1.061-0.707 0-0.354-1.061 0.354-0.707 7.072 1.768 7.779 2.475 15.204 4.95 0.707-0.707-3.182-1.061-4.243-2.122 7.072 2.475 13.436 4.243 17.68 7.072-1.414-1.061-5.657-2.475-8.84-3.889-0.354 0.354 1.061 0.707 1.414 1.414-3.536-1.768-8.486-3.536-13.436-4.243 4.243 1.061 7.072 2.475 8.84 3.182-3.889-0.707-8.84-3.182-14.498-4.243 9.193 2.829 26.519 9.193 37.127 14.851-3.889-2.475-8.486-4.243-10.961-5.657 2.122 0.354 4.597 1.768 4.597 1.06 2.475 1.061 5.657 3.536 7.425 3.89-3.182-2.122-9.547-5.304-11.668-6.365 26.519 12.022 50.21 32.177 65.414 57.989 1.414 2.475 3.536 8.133 5.304 8.84-0.354-1.768-1.768-2.829-3.182-5.657 0.707 0 0.707-1.061 0-2.122-1.414-1.768 0 1.414-1.415-0.354-6.365-11.669-14.144-21.923-26.165-33.237 6.718 6.365 1.768 1.768 0.353-0.354 9.193 8.133 19.801 21.923 24.398 28.995-0.707-1.061-1.061-1.768-0.707-1.768 8.486 14.497 13.79 27.58 19.094 46.32 0.354 0.354 0-1.414 0.707-0.353 3.536 14.851 4.597 27.227 4.243 38.541 2.829-19.094-3.536-48.796-14.851-72.133-1.414-2.829-1.414-0.707-2.829-3.889 0-1.061-1.061-3.182-1.768-4.597-14.144-23.337-31.47-39.956-51.978-53.038 1.414 0.707 4.243 2.829 4.244 2.475-38.188-25.105-82.387-28.641-118.807-20.862-2.475 1.061-3.536 2.122-6.365 3.536 5.304-1.768 8.486-2.122 13.437-3.183 1.061-1.061-4.597 0.354-2.122-0.707 0.354 0.354 4.95-0.707 6.011-0.353 0 0.354-1.414 0.707-1.768 1.06 11.669-2.475 23.691-2.829 33.945-2.121-6.011 0.354-16.972-0.707-20.508 1.061 3.536-0.354 8.486-0.707 11.668-0.354-4.243 0-12.022 0.354-15.558 0.707-0.354-0.354 5.657-1.061 1.768-1.06-1.768 0.354-4.597 0.354-5.657 1.414-30.409 2.829-60.111 18.74-80.973 37.481-4.243 3.536-9.193 7.425-12.375 11.314-7.779 8.84-12.729 17.68-18.387 25.459 3.536-7.425 11.315-18.74 20.508-28.287 9.193-9.547 19.094-17.68 24.398-21.923 0 1.414 8.486-5.304 11.669-7.425-2.122 1.768 1.414-0.707 2.121-0.354 11.315-6.718 20.508-9.193 30.763-13.083-2.475 0.707-4.597 1.414-4.951 1.061 2.475-0.707 3.889-1.414 3.536-1.768-9.901 2.829-25.459 9.547-37.834 16.972 22.276-15.204 50.564-24.398 78.497-24.751 27.934-0.707 55.16 6.365 76.729 17.68 14.497 6.365 28.287 18.033 39.249 29.348 3.182 2.829 0.707-0.707 5.304 4.243-1.414-0.707-2.475-1.414-0.707 0.707 2.829 3.182-0.707-2.475 3.889 3.182-0.354 0-1.768-1.768-1.768-1.061 12.376 10.961 21.923 30.762 27.58 43.846-1.414-5.304-4.95-12.729-7.779-18.033 8.486 15.558 11.315 24.751 14.851 38.541 1.414 1.061-0.707-4.95 0.707-2.121 0.354 2.122 0.707 8.84 2.122 9.9-1.061-6.718-2.829-14.851-4.243-16.265 1.061 0.707-1.768-8.133-3.536-10.254-0.707-5.657-5.657-15.558-9.901-22.984-15.204-29.702-42.431-54.099-72.839-67.536 0-0.707-1.768-1.414-2.476-2.121-30.055-12.729-66.122-16.265-100.773-8.133-35.006 8.486-67.889 28.641-91.227 57.636 1.061-3.536 9.901-10.254 10.255-13.083-10.254 10.961-21.215 25.459-28.641 41.016-7.779 15.558-12.022 31.47-13.79 43.138" fill="#ffffff" fill-rule="nonzero" stroke="none" stroke-width="1" stroke-linecap="butt" stroke-linejoin="miter" stroke-miterlimit="10" stroke-dasharray="" stroke-dashoffset="0" font-family="none" font-weight="none" font-size="none" text-anchor="none" style="mix-blend-mode: normal" data-fill-palette-color="tertiary"></path></g><g transform="matrix(1,0,0,1,48,92.91103202846975)"><svg viewBox="0 0 224 174.1779359430605" height="174.1779359430605" width="224"><g><svg viewBox="0 0 224 174.1779359430605" height="174.1779359430605" width="224"><g><svg viewBox="0 0 224 174.1779359430605" height="174.1779359430605" width="224"><g id="textblocktransform"><svg viewBox="0 0 224 174.1779359430605" height="174.1779359430605" width="224" id="textblock"><g><svg viewBox="0 0 224 174.1779359430605" height="174.1779359430605" width="224"><g transform="matrix(1,0,0,1,0,0)"><svg width="224" viewBox="56.54999999999997 -34.55 112.40000000000002 89.1" height="174.1779359430605" data-palette-color="#ffffff"><svg></svg><svg></svg><g class="wordmark-text-0" data-fill-palette-color="primary" id="text-0"><path d="M90.58 0h-6.35v-34.55h16.7l-0.7 4.75h-9.65v10.55h8.4v4.75h-8.4zM122.38-26.45v26.45h-5.35l-0.3-3.35c-0.833 1.367-1.767 2.39-2.8 3.07-1.033 0.687-2.233 1.03-3.6 1.03v0c-1.933 0-3.457-0.683-4.57-2.05-1.12-1.367-1.68-3.15-1.68-5.35v0-19.8h6.15v19.45c0 2.067 0.7 3.1 2.1 3.1v0c0.8 0 1.517-0.31 2.15-0.93 0.633-0.613 1.217-1.487 1.75-2.62v0-19zM140.43-27.15c1.9 0 3.4 0.683 4.5 2.05 1.1 1.367 1.65 3.2 1.65 5.5v0 19.6h-6.15v-18.9c0-1.267-0.177-2.177-0.53-2.73-0.347-0.547-0.853-0.82-1.52-0.82v0c-1.4 0-2.783 1.317-4.15 3.95v0 18.5h-6.15v-26.45h5.35l0.45 3.45c0.9-1.4 1.857-2.443 2.87-3.13 1.02-0.68 2.247-1.02 3.68-1.02z" fill="#ffffff" fill-rule="nonzero" stroke="none" stroke-width="1" stroke-linecap="butt" stroke-linejoin="miter" stroke-miterlimit="10" stroke-dasharray="" stroke-dashoffset="0" font-family="none" font-weight="none" font-size="none" text-anchor="none" style="mix-blend-mode: normal" data-fill-palette-color="primary" opacity="1"></path><path d="M77 13.85l1.55 4.75c-0.7 0.333-1.54 0.567-2.52 0.7-0.987 0.133-2.213 0.2-3.68 0.2v0c1.4 0.667 2.443 1.557 3.13 2.67 0.68 1.12 1.02 2.497 1.02 4.13v0c0 2.667-0.817 4.817-2.45 6.45-1.633 1.633-3.85 2.45-6.65 2.45v0c-0.833 0-1.683-0.133-2.55-0.4v0c-0.6 0.5-0.9 1.183-0.9 2.05v0c0 0.667 0.183 1.167 0.55 1.5 0.367 0.333 1.05 0.5 2.05 0.5v0h2.8c2.667 0 4.783 0.69 6.35 2.07 1.567 1.387 2.35 3.147 2.35 5.28v0c0 2.533-0.973 4.56-2.92 6.08-1.953 1.513-4.73 2.27-8.33 2.27v0c-3.8 0-6.457-0.7-7.97-2.1-1.52-1.4-2.28-3.45-2.28-6.15v0h5.45c0 1.433 0.333 2.45 1 3.05 0.667 0.6 1.95 0.9 3.85 0.9v0c1.833 0 3.133-0.317 3.9-0.95 0.767-0.633 1.15-1.533 1.15-2.7v0c0-1.133-0.317-1.967-0.95-2.5-0.633-0.533-1.617-0.8-2.95-0.8v0h-1.9c-2.533 0-4.383-0.45-5.55-1.35-1.167-0.9-1.75-2.133-1.75-3.7v0c0-0.9 0.243-1.76 0.73-2.58 0.48-0.813 1.137-1.537 1.97-2.17v0c-1.367-0.867-2.367-1.9-3-3.1-0.633-1.2-0.95-2.667-0.95-4.4v0c0-2.9 0.867-5.193 2.6-6.88 1.733-1.68 4.067-2.52 7-2.52v0c2.167 0 3.957-0.233 5.37-0.7 1.42-0.467 2.913-1.15 4.48-2.05zM67.15 20.7c-1.167 0-2.05 0.417-2.65 1.25-0.6 0.833-0.9 2.15-0.9 3.95v0c0 1.7 0.3 3.007 0.9 3.92 0.6 0.92 1.467 1.38 2.6 1.38v0c1.167 0 2.033-0.41 2.6-1.23 0.567-0.813 0.85-2.187 0.85-4.12v0c0-1.8-0.273-3.11-0.82-3.93-0.553-0.813-1.413-1.22-2.58-1.22zM99.45 17.25v26.45h-5.35l-0.3-3.35c-0.833 1.367-1.767 2.39-2.8 3.07-1.033 0.687-2.233 1.03-3.6 1.03v0c-1.933 0-3.457-0.683-4.57-2.05-1.12-1.367-1.68-3.15-1.68-5.35v0-19.8h6.15v19.45c0 2.067 0.7 3.1 2.1 3.1v0c0.8 0 1.517-0.31 2.15-0.93 0.633-0.613 1.217-1.487 1.75-2.62v0-19zM122.05 37.3c0 0.867 0.117 1.507 0.35 1.92 0.233 0.42 0.617 0.763 1.15 1.03v0l-1.25 4.1c-1.367-0.167-2.457-0.533-3.27-1.1-0.82-0.567-1.43-1.433-1.83-2.6v0c-1.533 2.533-3.683 3.8-6.45 3.8v0c-2.2 0-3.95-0.743-5.25-2.23-1.3-1.48-1.95-3.453-1.95-5.92v0c0-2.867 0.89-5.05 2.67-6.55 1.787-1.5 4.38-2.25 7.78-2.25v0h2.05v-1.85c0-1.667-0.29-2.843-0.87-3.53-0.587-0.68-1.53-1.02-2.83-1.02v0c-1.567 0-3.517 0.433-5.85 1.3v0l-1.4-4c1.333-0.6 2.717-1.06 4.15-1.38 1.433-0.313 2.8-0.47 4.1-0.47v0c5.8 0 8.7 2.933 8.7 8.8v0zM112.4 40c1.6 0 2.817-1.1 3.65-3.3v0-5.55h-1.45c-1.7 0-2.94 0.383-3.72 1.15-0.787 0.767-1.18 1.95-1.18 3.55v0c0 1.367 0.233 2.4 0.7 3.1 0.467 0.7 1.133 1.05 2 1.05zM145.8 13.85l1.55 4.75c-0.7 0.333-1.54 0.567-2.52 0.7-0.987 0.133-2.213 0.2-3.68 0.2v0c1.4 0.667 2.443 1.557 3.13 2.67 0.68 1.12 1.02 2.497 1.02 4.13v0c0 2.667-0.817 4.817-2.45 6.45-1.633 1.633-3.85 2.45-6.65 2.45v0c-0.833 0-1.683-0.133-2.55-0.4v0c-0.6 0.5-0.9 1.183-0.9 2.05v0c0 0.667 0.183 1.167 0.55 1.5 0.367 0.333 1.05 0.5 2.05 0.5v0h2.8c2.667 0 4.783 0.69 6.35 2.07 1.567 1.387 2.35 3.147 2.35 5.28v0c0 2.533-0.973 4.56-2.92 6.08-1.953 1.513-4.73 2.27-8.33 2.27v0c-3.8 0-6.457-0.7-7.97-2.1-1.52-1.4-2.28-3.45-2.28-6.15v0h5.45c0 1.433 0.333 2.45 1 3.05 0.667 0.6 1.95 0.9 3.85 0.9v0c1.833 0 3.133-0.317 3.9-0.95 0.767-0.633 1.15-1.533 1.15-2.7v0c0-1.133-0.317-1.967-0.95-2.5-0.633-0.533-1.617-0.8-2.95-0.8v0h-1.9c-2.533 0-4.383-0.45-5.55-1.35-1.167-0.9-1.75-2.133-1.75-3.7v0c0-0.9 0.243-1.76 0.73-2.58 0.48-0.813 1.137-1.537 1.97-2.17v0c-1.367-0.867-2.367-1.9-3-3.1-0.633-1.2-0.95-2.667-0.95-4.4v0c0-2.9 0.867-5.193 2.6-6.88 1.733-1.68 4.067-2.52 7-2.52v0c2.167 0 3.96-0.233 5.38-0.7 1.413-0.467 2.903-1.15 4.47-2.05zM135.95 20.7c-1.167 0-2.05 0.417-2.65 1.25-0.6 0.833-0.9 2.15-0.9 3.95v0c0 1.7 0.3 3.007 0.9 3.92 0.6 0.92 1.467 1.38 2.6 1.38v0c1.167 0 2.033-0.41 2.6-1.23 0.567-0.813 0.85-2.187 0.85-4.12v0c0-1.8-0.273-3.11-0.82-3.93-0.553-0.813-1.413-1.22-2.58-1.22zM168.95 29.85c0 0.3-0.05 1.15-0.15 2.55v0h-13.65c0.133 2.733 0.61 4.64 1.43 5.72 0.813 1.087 1.97 1.63 3.47 1.63v0c1.033 0 1.967-0.177 2.8-0.53 0.833-0.347 1.733-0.903 2.7-1.67v0l2.55 3.5c-2.333 2.267-5.133 3.4-8.4 3.4v0c-3.467 0-6.123-1.2-7.97-3.6-1.853-2.4-2.78-5.783-2.78-10.15v0c0-4.367 0.883-7.817 2.65-10.35 1.767-2.533 4.267-3.8 7.5-3.8v0c3.1 0 5.517 1.123 7.25 3.37 1.733 2.253 2.6 5.563 2.6 9.93zM162.95 28.4v-0.35c0-2.5-0.3-4.327-0.9-5.48-0.6-1.147-1.567-1.72-2.9-1.72v0c-1.233 0-2.173 0.557-2.82 1.67-0.653 1.12-1.047 3.08-1.18 5.88v0z" fill="#ffffff" fill-rule="nonzero" stroke="none" stroke-width="1" stroke-linecap="butt" stroke-linejoin="miter" stroke-miterlimit="10" stroke-dasharray="" stroke-dashoffset="0" font-family="none" font-weight="none" font-size="none" text-anchor="none" style="mix-blend-mode: normal" data-fill-palette-color="primary" opacity="1"></path></g></svg></g></svg></g></svg></g></svg></g><g></g></svg></g></svg></g></svg></g><defs></defs></svg><rect width="320" height="360" fill="none" stroke="none" visibility="hidden"></rect></g></svg></g></svg>